<?xml version="1.0" encoding="utf-8"?>
<!-- Generator: Adobe Illustrator 19.2.1, SVG Export Plug-In . SVG Version: 6.00 Build 0)  -->
<svg version="1.1" id="Ebene_1" xmlns="http://www.w3.org/2000/svg" xmlns:xlink="http://www.w3.org/1999/xlink" x="0px" y="0px"
	 viewBox="0 0 21.9 21.9" style="enable-background:new 0 0 21.9 21.9;" xml:space="preserve">
<path d="M13.8,11.3c-0.2-0.2-0.2-0.5,0-0.6l6.8-6.8C20.9,3.6,21,3.3,21,3.1c0-0.2-0.1-0.5-0.3-0.6l-1.3-1.3
	c-0.2-0.2-0.5-0.3-0.6-0.3c-0.3,0-0.5,0.1-0.6,0.3l-6.8,6.8c-0.2,0.2-0.5,0.2-0.6,0L3.8,1.2C3.6,1,3.3,0.9,3.1,0.9
	C3,0.9,2.7,1,2.5,1.2L1.2,2.5C1,2.7,0.9,3,0.9,3.1c0,0.2,0.1,0.5,0.3,0.6l6.8,6.8c0.2,0.2,0.2,0.5,0,0.6l-6.8,6.8
	c-0.2,0.2-0.3,0.5-0.3,0.6c0,0.2,0.1,0.5,0.3,0.6l1.3,1.3C2.7,20.9,3,21,3.1,21c0.2,0,0.5-0.1,0.6-0.3l6.8-6.8
	c0.2-0.2,0.5-0.2,0.6,0l6.8,6.8c0.2,0.2,0.5,0.3,0.6,0.3c0.2,0,0.5-0.1,0.6-0.3l1.3-1.3c0.2-0.2,0.3-0.5,0.3-0.6
	c0-0.2-0.1-0.5-0.3-0.6L13.8,11.3z"/>
</svg>
