<?xml version="1.0" encoding="utf-8"?>
<!-- Generator: Adobe Illustrator 19.2.1, SVG Export Plug-In . SVG Version: 6.00 Build 0)  -->
<svg version="1.1" id="Ebene_1" xmlns="http://www.w3.org/2000/svg" xmlns:xlink="http://www.w3.org/1999/xlink" x="0px" y="0px"
	 viewBox="0 0 21.9 21.9" style="enable-background:new 0 0 21.9 21.9;" xml:space="preserve">
<g>
	<g>
		<g>
			<path d="M18.3,8.4L18.3,8.4l-0.5-0.9l0-0.1c1.1-2.6,1-2.7,0.9-2.9L17.2,3C17.2,3,17.1,2.9,17,2.9c-0.1,0-0.3,0-2.6,1l-0.1,0
				l-0.9-0.4l0-0.1c-1-2.6-1.1-2.6-1.4-2.6H9.8c-0.3,0-0.4,0-1.3,2.6l0,0.1L7.6,4L7.5,4C6,3.3,5.1,3,4.9,3C4.8,3,4.7,3,4.6,3.1
				L3.1,4.6C2.9,4.8,2.8,4.9,4,7.4l0,0.1L3.7,8.4l-0.1,0c-2.6,1-2.6,1.1-2.6,1.4V12c0,0.3,0,0.4,2.6,1.4l0.1,0l0.4,0.9l0,0.1
				C2.9,17,3,17.1,3.2,17.3l1.5,1.5c0.1,0.1,0.2,0.1,0.3,0.1c0.1,0,0.3,0,2.6-1l0.1,0l0.9,0.4l0,0.1c1,2.6,1.2,2.6,1.4,2.6h2.1
				c0.3,0,0.4,0,1.3-2.6l0-0.1l0.9-0.4l0.1,0c1.5,0.6,2.4,1,2.6,1c0.1,0,0.2,0,0.3-0.1l1.5-1.5c0.2-0.2,0.3-0.3-0.9-2.8l0-0.1
				l0.4-0.9l0.1,0c2.6-1,2.6-1.2,2.6-1.4V9.8C20.9,9.5,20.9,9.4,18.3,8.4z M10.9,14.3c-1.9,0-3.4-1.5-3.4-3.4c0-1.9,1.5-3.4,3.4-3.4
				c1.9,0,3.4,1.5,3.4,3.4C14.4,12.8,12.8,14.3,10.9,14.3z"/>
		</g>
	</g>
</g>
</svg>
