<?xml version="1.0" encoding="utf-8"?>
<!-- Generator: Adobe Illustrator 19.2.1, SVG Export Plug-In . SVG Version: 6.00 Build 0)  -->
<svg version="1.1" id="Ebene_1" xmlns="http://www.w3.org/2000/svg" xmlns:xlink="http://www.w3.org/1999/xlink" x="0px" y="0px"
	 viewBox="0 0 21.9 21.9" style="enable-background:new 0 0 21.9 21.9;" xml:space="preserve">
<g>
	<g>
		<path d="M10,7.4C9.8,7.6,9.7,7.9,9.7,8.1c0,0.2,0.1,0.5,0.2,0.7c0.1,0.2,0.4,0.4,0.7,0.5V6.9C10.4,7,10.1,7.2,10,7.4L10,7.4z"/>
		<path d="M13.8,14.8c-0.5,0.6-1.2,0.9-2.1,1.1v1.3h-1v-1.3c-0.8-0.1-1.5-0.4-2-0.9c-0.5-0.5-0.8-1.2-1-2.1l1.8-0.2
			c0.1,0.4,0.2,0.7,0.4,1c0.2,0.3,0.4,0.5,0.7,0.6v-2.9c-0.9-0.3-1.6-0.7-2-1.2C8.2,9.6,8,9,8,8.2c0-0.8,0.2-1.4,0.7-1.9
			c0.5-0.5,1.1-0.8,1.9-0.9V4.7h1v0.7c0.7,0.1,1.3,0.3,1.8,0.8c0.4,0.4,0.7,1,0.8,1.7l-1.8,0.2c-0.1-0.5-0.4-0.9-0.8-1.1v2.7
			c1.1,0.3,1.9,0.7,2.3,1.2c0.4,0.5,0.6,1.1,0.6,1.8C14.5,13.5,14.3,14.2,13.8,14.8L13.8,14.8z M11.1,0.9c-5.5,0-10,4.5-10,10
			s4.5,10,10,10s10-4.5,10-10S16.6,0.9,11.1,0.9z"/>
		<path d="M11.6,11.6v2.7c0.3-0.1,0.6-0.2,0.8-0.5c0.2-0.3,0.3-0.6,0.3-0.9c0-0.3-0.1-0.6-0.3-0.8C12.4,11.9,12.1,11.7,11.6,11.6
			L11.6,11.6z"/>
	</g>
</g>
</svg>
