<?xml version="1.0" encoding="utf-8"?>
<!-- Generator: Adobe Illustrator 19.2.1, SVG Export Plug-In . SVG Version: 6.00 Build 0)  -->
<svg version="1.1" id="Ebene_1" xmlns="http://www.w3.org/2000/svg" xmlns:xlink="http://www.w3.org/1999/xlink" x="0px" y="0px"
	 viewBox="0 0 21.9 21.9" style="enable-background:new 0 0 21.9 21.9;" xml:space="preserve">
<style type="text/css">
	.st0{fill:#030104;}
</style>
<g>
	<path class="st0" d="M11,5.6c-6.6,0-10,4.8-10,5.6c0,0.8,3.4,5.6,10,5.6c6.6,0,10-4.8,10-5.6C21,10.4,17.6,5.6,11,5.6z M11,15.5
		c-2.5,0-4.4-1.9-4.4-4.3s2-4.3,4.4-4.3s4.4,1.9,4.4,4.3S13.5,15.5,11,15.5z M13.2,11.2c0,1.2-1,2.2-2.2,2.2c-1.2,0-2.2-1-2.2-2.2
		S9.8,9,11,9c0.7,0-0.4,1.7,0,2.2C11.3,11.6,13.2,10.6,13.2,11.2z"/>
</g>
</svg>
