<?xml version="1.0" encoding="utf-8"?>
<!-- Generator: Adobe Illustrator 19.2.1, SVG Export Plug-In . SVG Version: 6.00 Build 0)  -->
<svg version="1.1" id="Ebene_2" xmlns="http://www.w3.org/2000/svg" xmlns:xlink="http://www.w3.org/1999/xlink" x="0px" y="0px"
	 viewBox="0 0 23.6 23.6" style="enable-background:new 0 0 23.6 23.6;" xml:space="preserve">
<g>
	<path d="M13.2,3.7c-0.6,0-1,0.2-1.4,0.6c-0.4,0.4-0.6,0.8-0.6,1.3c0,0.5,0.2,1,0.6,1.3c0.4,0.4,0.9,0.6,1.4,0.6
		c0.6,0,1-0.2,1.4-0.6c0.4-0.4,0.6-0.8,0.6-1.3c0-0.5-0.2-1-0.6-1.3C14.2,3.9,13.7,3.7,13.2,3.7z"/>
	<path d="M13.7,18.5c-0.4,0-0.7-0.1-0.9-0.2c-0.2-0.1-0.3-0.4-0.3-0.8c0-0.2,0-0.4,0.1-0.7c0.1-0.3,0.1-0.6,0.2-0.8l0.8-3
		c0.1-0.3,0.1-0.6,0.2-0.9c0-0.3,0-0.6,0-0.7c0-0.6-0.2-1.1-0.7-1.5c-0.4-0.4-1.1-0.6-1.9-0.6c-0.5,0-0.9,0.1-1.4,0.2
		c-0.5,0.2-1,0.4-1.6,0.6L8,10.9c0.2-0.1,0.4-0.1,0.6-0.2c0.2-0.1,0.5-0.1,0.7-0.1c0.4,0,0.7,0.1,0.9,0.2c0.2,0.2,0.2,0.4,0.2,0.8
		c0,0.2,0,0.4-0.1,0.7c-0.1,0.3-0.1,0.5-0.2,0.8l-0.8,3c-0.1,0.3-0.1,0.6-0.2,0.8c0,0.3-0.1,0.5-0.1,0.7c0,0.6,0.2,1.1,0.7,1.5
		c0.5,0.4,1.1,0.6,1.9,0.6c0.5,0,1-0.1,1.4-0.2c0.4-0.1,0.9-0.3,1.6-0.6l0.2-0.9c-0.1,0.1-0.3,0.1-0.6,0.2
		C14.1,18.4,13.9,18.5,13.7,18.5z"/>
	<path d="M11.8,0.3C5.5,0.3,0.3,5.5,0.3,11.8c0,6.3,5.2,11.5,11.5,11.5c6.3,0,11.5-5.2,11.5-11.5C23.3,5.5,18.2,0.3,11.8,0.3z
		 M11.8,22.3C6,22.3,1.3,17.6,1.3,11.8C1.3,6,6,1.3,11.8,1.3c5.8,0,10.5,4.7,10.5,10.5C22.3,17.6,17.6,22.3,11.8,22.3z"/>
</g>
</svg>
