<?xml version="1.0" encoding="utf-8"?>
<!-- Generator: Adobe Illustrator 19.2.1, SVG Export Plug-In . SVG Version: 6.00 Build 0)  -->
<svg version="1.1" id="Ebene_1" xmlns="http://www.w3.org/2000/svg" xmlns:xlink="http://www.w3.org/1999/xlink" x="0px" y="0px"
	 viewBox="0 0 21.9 21.9" style="enable-background:new 0 0 21.9 21.9;" xml:space="preserve">
<g>
	<path d="M11.2,1C7.6,1,4.6,4,4.6,7.6c0,1.5,0.9,3.9,2.9,7.3c1.4,2.4,2.7,4.5,2.8,4.6l1,1.5l1-1.5c0.1-0.1,1.4-2.1,2.8-4.6
		c1.9-3.5,2.9-5.9,2.9-7.3C17.8,4,14.9,1,11.2,1z M11.2,11c-1.9,0-3.4-1.5-3.4-3.4s1.5-3.4,3.4-3.4s3.4,1.5,3.4,3.4S13.1,11,11.2,11
		z"/>
</g>
</svg>
