<?xml version="1.0" encoding="utf-8"?>
<!-- Generator: Adobe Illustrator 19.2.1, SVG Export Plug-In . SVG Version: 6.00 Build 0)  -->
<svg version="1.1" id="Ebene_1" xmlns="http://www.w3.org/2000/svg" xmlns:xlink="http://www.w3.org/1999/xlink" x="0px" y="0px"
	 viewBox="0 0 21.9 21.9" style="enable-background:new 0 0 21.9 21.9;" xml:space="preserve">
<g>
	<g>
		<polygon points="13,21 14.4,21 14.4,14.5 13,14.9 		"/>
		<path d="M16.8,5.4h-2.9l-0.3,4.5c0,0,0,0.4-0.2,0.7c-0.1,0.1-0.3,0.2-0.5,0.2c-0.1,0-0.5,0-0.7-0.2S12,10.3,12,10.2l0.3-4.8h-4
			c2.6,0.6,2.5,3.8,2.5,3.8v5.9h0.1l1.7-0.5l0.3-0.1l1.4-0.4l0.3-0.1l4.2-1.2c0-0.5,0-2.7,0-4.9C18.9,5.6,16.9,5.4,16.8,5.4z"/>
		<path d="M8.1,5.7c-0.2,0-0.3,0-0.5,0c-0.1,0-0.1,0-0.2,0s-0.1,0-0.2,0c-0.3,0-0.6,0.2-0.8,0.4C5.9,6.7,6,7.7,6,7.7v5.2l3.1,1.3
			l0.4,0.2l0.9,0.4l0,0V9.2l0,0c0-0.1,0-0.7-0.2-1.3C10.1,6.9,9.5,5.9,8.1,5.7z"/>
		<path d="M3.2,16.2c0,0-1.2,1.9,0,3.1c0.4,0.4,0.9,0.5,1.4,0.5c1.1,0,2.3-0.7,2.8-1.1c0.6-0.6,2.6-2.8,3.1-3.4l-4.6-2.1L3.2,16.2z"
			/>
		<path d="M13.1,10.3c0.1-0.1,0.1-0.4,0.1-0.5l0.3-4.5V5l0.1-1.5h0.2c0,0,0.5,0,0.9,0C15,3.5,15,3.2,15,3.2s0.1-0.5,0.1-1.1
			c0-0.4-0.3-0.5-0.3-0.5L13,1l-0.3,4v0.3l-0.3,4.9c0.1,0.1,0.2,0.1,0.5,0.1C12.9,10.4,13,10.4,13.1,10.3z"/>
	</g>
</g>
</svg>
