<?xml version="1.0" encoding="utf-8"?>
<!-- Generator: Adobe Illustrator 19.2.1, SVG Export Plug-In . SVG Version: 6.00 Build 0)  -->
<svg version="1.1" id="Ebene_1" xmlns="http://www.w3.org/2000/svg" xmlns:xlink="http://www.w3.org/1999/xlink" x="0px" y="0px"
	 viewBox="0 0 21.9 21.9" style="enable-background:new 0 0 21.9 21.9;" xml:space="preserve">
<path d="M11,1.1c-5.5,0-10,4.5-10,10s4.5,10,10,10s10-4.5,10-10S16.5,1.1,11,1.1z M15.8,11.8h-4v4.2c0,0.4-0.3,0.8-0.8,0.8
	s-0.8-0.3-0.8-0.8v-4.2h-4c-0.4,0-0.8-0.3-0.8-0.8s0.3-0.8,0.8-0.8h4V6.4c0-0.4,0.3-0.8,0.8-0.8s0.8,0.3,0.8,0.8v3.8h4
	c0.4,0,0.8,0.3,0.8,0.8S16.2,11.8,15.8,11.8z"/>
</svg>
