<?xml version="1.0" encoding="utf-8"?>
<!-- Generator: Adobe Illustrator 19.2.1, SVG Export Plug-In . SVG Version: 6.00 Build 0)  -->
<svg version="1.1" id="Ebene_1" xmlns="http://www.w3.org/2000/svg" xmlns:xlink="http://www.w3.org/1999/xlink" x="0px" y="0px"
	 viewBox="0 0 21.9 21.9" style="enable-background:new 0 0 21.9 21.9;" xml:space="preserve">
<g>
	<g id="search">
		<path d="M15.3,13.6h-0.9L14,13.2c1.1-1.3,1.8-3,1.8-4.8c0-4.1-3.3-7.4-7.4-7.4S1,4.3,1,8.4s3.3,7.4,7.4,7.4c1.8,0,3.5-0.7,4.8-1.8
			l0.3,0.3v0.9l5.7,5.7l1.7-1.7L15.3,13.6z M8.4,13.6c-2.9,0-5.1-2.3-5.1-5.1s2.3-5.1,5.1-5.1s5.1,2.3,5.1,5.1S11.3,13.6,8.4,13.6z"
			/>
	</g>
</g>
</svg>
