<?xml version="1.0" encoding="iso-8859-1"?>
<!-- Generator: Adobe Illustrator 18.0.0, SVG Export Plug-In . SVG Version: 6.00 Build 0)  -->
<!DOCTYPE svg PUBLIC "-//W3C//DTD SVG 1.1//EN" "http://www.w3.org/Graphics/SVG/1.1/DTD/svg11.dtd">
<svg version="1.1" id="Capa_1" xmlns="http://www.w3.org/2000/svg" xmlns:xlink="http://www.w3.org/1999/xlink" x="0px" y="0px"
	 viewBox="0 0 60 60" style="enable-background:new 0 0 60 60;" xml:space="preserve">
<path d="M0,8.5v43h60v-43H0z M43,15.5h10v10H43V15.5z M8,14.5h8c0.552,0,1,0.447,1,1s-0.448,1-1,1H8c-0.552,0-1-0.447-1-1
	S7.448,14.5,8,14.5z M8,19.5h20c0.552,0,1,0.447,1,1s-0.448,1-1,1H8c-0.552,0-1-0.447-1-1S7.448,19.5,8,19.5z M7,25.5
	c0-0.553,0.448-1,1-1h20c0.552,0,1,0.447,1,1s-0.448,1-1,1H8C7.448,26.5,7,26.053,7,25.5z M29,45.5c-3.309,0-6-2.691-6-6
	s2.691-6,6-6s6,2.691,6,6S32.309,45.5,29,45.5z M53.77,43.139C53.042,44.017,52.058,44.5,51,44.5s-2.042-0.483-2.77-1.361
	c-0.683-0.824-1.778-0.824-2.461,0C45.042,44.017,44.058,44.5,43,44.5s-2.042-0.483-2.77-1.361c-0.683-0.824-1.778-0.824-2.461,0
	c-0.353,0.426-0.982,0.484-1.408,0.131c-0.425-0.353-0.484-0.982-0.131-1.408C36.958,40.983,37.942,40.5,39,40.5
	s2.042,0.483,2.77,1.361c0.683,0.824,1.778,0.824,2.461,0C44.958,40.983,45.942,40.5,47,40.5s2.042,0.483,2.77,1.361
	c0.683,0.824,1.778,0.824,2.461,0c0.354-0.425,0.984-0.483,1.408-0.131C54.063,42.083,54.122,42.713,53.77,43.139z M53.77,37.139
	C53.042,38.017,52.058,38.5,51,38.5s-2.042-0.483-2.77-1.361c-0.683-0.824-1.778-0.824-2.461,0C45.042,38.017,44.058,38.5,43,38.5
	s-2.042-0.483-2.77-1.361c-0.683-0.824-1.778-0.824-2.461,0c-0.353,0.426-0.982,0.484-1.408,0.131
	c-0.425-0.353-0.484-0.982-0.131-1.408C36.958,34.983,37.942,34.5,39,34.5s2.042,0.483,2.77,1.361c0.683,0.824,1.778,0.824,2.461,0
	C44.958,34.983,45.942,34.5,47,34.5s2.042,0.483,2.77,1.361c0.683,0.824,1.778,0.824,2.461,0c0.354-0.425,0.984-0.483,1.408-0.131
	C54.063,36.083,54.122,36.713,53.77,37.139z"/>
<g>
</g>
<g>
</g>
<g>
</g>
<g>
</g>
<g>
</g>
<g>
</g>
<g>
</g>
<g>
</g>
<g>
</g>
<g>
</g>
<g>
</g>
<g>
</g>
<g>
</g>
<g>
</g>
<g>
</g>
</svg>
