<?xml version="1.0" encoding="utf-8"?>
<!-- Generator: Adobe Illustrator 19.2.1, SVG Export Plug-In . SVG Version: 6.00 Build 0)  -->
<svg version="1.1" id="Ebene_1" xmlns="http://www.w3.org/2000/svg" xmlns:xlink="http://www.w3.org/1999/xlink" x="0px" y="0px"
	 viewBox="0 0 21.9 21.9" style="enable-background:new 0 0 21.9 21.9;" xml:space="preserve">
<path d="M1,3.8v14.3h20V3.8H1z M15.3,6.2h3.3v3.3h-3.3V6.2z M3.7,5.8h2.7c0.2,0,0.3,0.1,0.3,0.3c0,0.2-0.1,0.3-0.3,0.3H3.7
	c-0.2,0-0.3-0.1-0.3-0.3C3.3,6,3.5,5.8,3.7,5.8z M3.7,7.5h6.7c0.2,0,0.3,0.1,0.3,0.3s-0.1,0.3-0.3,0.3H3.7C3.5,8.2,3.3,8,3.3,7.8
	S3.5,7.5,3.7,7.5z M3.3,9.5c0-0.2,0.1-0.3,0.3-0.3h6.7c0.2,0,0.3,0.1,0.3,0.3s-0.1,0.3-0.3,0.3H3.7C3.5,9.8,3.3,9.7,3.3,9.5z
	 M10.7,16.2c-1.1,0-2-0.9-2-2s0.9-2,2-2c1.1,0,2,0.9,2,2S11.8,16.2,10.7,16.2z M18.9,15.4c-0.2,0.3-0.6,0.5-0.9,0.5
	s-0.7-0.2-0.9-0.5c-0.2-0.3-0.6-0.3-0.8,0c-0.2,0.3-0.6,0.5-0.9,0.5c-0.4,0-0.7-0.2-0.9-0.5c-0.2-0.3-0.6-0.3-0.8,0
	c-0.1,0.1-0.3,0.2-0.5,0c-0.1-0.1-0.2-0.3,0-0.5c0.2-0.3,0.6-0.5,0.9-0.5s0.7,0.2,0.9,0.5c0.2,0.3,0.6,0.3,0.8,0
	c0.2-0.3,0.6-0.5,0.9-0.5c0.4,0,0.7,0.2,0.9,0.5c0.2,0.3,0.6,0.3,0.8,0c0.1-0.1,0.3-0.2,0.5,0C19,15,19,15.2,18.9,15.4z M18.9,13.4
	c-0.2,0.3-0.6,0.5-0.9,0.5s-0.7-0.2-0.9-0.5c-0.2-0.3-0.6-0.3-0.8,0c-0.2,0.3-0.6,0.5-0.9,0.5c-0.4,0-0.7-0.2-0.9-0.5
	c-0.2-0.3-0.6-0.3-0.8,0c-0.1,0.1-0.3,0.2-0.5,0c-0.1-0.1-0.2-0.3,0-0.5c0.2-0.3,0.6-0.5,0.9-0.5s0.7,0.2,0.9,0.5
	c0.2,0.3,0.6,0.3,0.8,0c0.2-0.3,0.6-0.5,0.9-0.5c0.4,0,0.7,0.2,0.9,0.5c0.2,0.3,0.6,0.3,0.8,0c0.1-0.1,0.3-0.2,0.5,0
	C19,13,19,13.2,18.9,13.4z"/>
</svg>
