<?xml version="1.0" encoding="utf-8"?>
<!-- Generator: Adobe Illustrator 19.2.1, SVG Export Plug-In . SVG Version: 6.00 Build 0)  -->
<svg version="1.1" id="Ebene_1" xmlns="http://www.w3.org/2000/svg" xmlns:xlink="http://www.w3.org/1999/xlink" x="0px" y="0px"
	 viewBox="0 0 21.9 21.9" style="enable-background:new 0 0 21.9 21.9;" xml:space="preserve">
<g>
	<path d="M13.1,5.5C14,6.1,14.6,7,14.8,8.2c0.4,0.2,0.8,0.3,1.2,0.3c1.6,0,2.9-1.3,2.9-2.9c0-1.6-1.3-2.9-2.9-2.9
		C14.4,2.6,13.1,3.9,13.1,5.5z M11.1,11.5c1.6,0,2.9-1.3,2.9-2.9s-1.3-2.9-2.9-2.9S8.2,6.9,8.2,8.5S9.5,11.5,11.1,11.5z M12.4,11.7
		H9.9c-2.1,0-3.8,1.7-3.8,3.8v3l0,0l0.2,0.1c2,0.6,3.7,0.8,5.1,0.8c2.8,0,4.4-0.8,4.5-0.8l0.2-0.1h0v-3
		C16.1,13.4,14.5,11.7,12.4,11.7z M17.2,8.7h-2.5c0,1-0.4,1.9-1.1,2.5c1.8,0.5,3.2,2.3,3.2,4.3v0.9c2.4-0.1,3.8-0.8,3.9-0.8l0.2-0.1
		h0v-3C21,10.3,19.3,8.7,17.2,8.7z M6,8.5c0.6,0,1.1-0.2,1.6-0.5c0.1-0.9,0.6-1.8,1.4-2.3c0-0.1,0-0.1,0-0.2c0-1.6-1.3-2.9-2.9-2.9
		c-1.6,0-2.9,1.3-2.9,2.9C3.1,7.1,4.4,8.5,6,8.5z M8.6,11.2C8,10.5,7.6,9.6,7.5,8.7c-0.1,0-0.2,0-0.3,0H4.8C2.7,8.7,1,10.3,1,12.4v3
		l0,0l0.2,0.1c1.6,0.5,3,0.7,4.2,0.8v-0.9C5.4,13.4,6.8,11.7,8.6,11.2z"/>
</g>
</svg>
