<?xml version="1.0" encoding="utf-8"?>
<!-- Generator: Adobe Illustrator 19.2.1, SVG Export Plug-In . SVG Version: 6.00 Build 0)  -->
<svg version="1.1" id="Ebene_1" xmlns="http://www.w3.org/2000/svg" xmlns:xlink="http://www.w3.org/1999/xlink" x="0px" y="0px"
	 viewBox="0 0 21.9 21.9" style="enable-background:new 0 0 21.9 21.9;" xml:space="preserve">
<g>
	<path d="M10,19.3c-0.8,0-1.4-0.6-1.4-1.4V9.6c2-0.4,3.5-2.1,3.5-4.2c0-2.4-1.9-4.3-4.3-4.3S3.4,2.9,3.4,5.3c0,2.1,1.5,3.9,3.5,4.2
		v8.4c0,1.7,1.4,3.1,3.1,3.1h9.4v-1.7H10L10,19.3z M7.8,8.5C6,8.5,4.5,7.1,4.5,5.3c0-1.8,1.4-3.2,3.2-3.2S11,3.6,11,5.3
		C11,7.1,9.5,8.5,7.8,8.5z M11.4,10c-0.9,0-1.6,0.7-1.6,1.6v5.2c0,0.9,0.7,1.6,1.6,1.6h5.9c0.9,0,1.6-0.7,1.6-1.6v-5.2
		c0-0.9-0.7-1.6-1.6-1.6h-2.4v1.2h-1.1V10H11.4L11.4,10z M16.5,16.6h-4.4v-0.6h4.4L16.5,16.6L16.5,16.6z M15.7,12l1.1,1.3
		c0,0-0.4,0-0.8,0V15h-0.6v-1.7c-0.4,0-0.8,0-0.8,0L15.7,12z M14,13.3c0,0-0.4,0-0.8,0V15h-0.6v-1.7c-0.4,0-0.8,0-0.8,0l1.1-1.3
		L14,13.3z M7.5,5.8C7.3,5.8,7,5.7,7,5.4c0-0.3,0.1-0.5,0.4-0.5c0.1,0,0.1,0,0.2,0l2.7,0.5L7.5,5.8z M7.8,3.4C8,3.4,8.2,3.2,8.2,3
		c0-0.2-0.2-0.4-0.4-0.4S7.4,2.8,7.4,3C7.4,3.2,7.5,3.4,7.8,3.4z M7.8,8.1c0.2,0,0.4-0.2,0.4-0.4S8,7.3,7.8,7.3S7.4,7.5,7.4,7.7
		S7.5,8.1,7.8,8.1z M5.4,5.7c0.2,0,0.4-0.2,0.4-0.4S5.6,4.9,5.4,4.9S5,5.1,5,5.3S5.2,5.7,5.4,5.7z"/>
</g>
</svg>
